<svg xmlns="http://www.w3.org/2000/svg">
  <symbol id="icon-star" viewBox="0 0 1024 1024">
    <title>Stern</title>
    <path class="path1" d="M1020.192 401.824c-8.864-25.568-31.616-44.288-59.008-48.352l-266.432-39.616-115.808-240.448c-12.192-25.248-38.272-41.408-66.944-41.408s-54.752 16.16-66.944 41.408l-115.808 240.448-266.464 39.616c-27.36 4.064-50.112 22.784-58.944 48.352-8.8 25.632-2.144 53.856 17.184 73.12l195.264 194.944-45.28 270.432c-4.608 27.232 7.2 54.56 30.336 70.496 12.704 8.736 27.648 13.184 42.592 13.184 12.288 0 24.608-3.008 35.776-8.992l232.288-125.056 232.32 125.056c11.168 5.984 23.488 8.992 35.744 8.992 14.944 0 29.888-4.448 42.624-13.184 23.136-15.936 34.88-43.264 30.304-70.496l-45.312-270.432 195.328-194.944c19.296-19.296 25.92-47.52 17.184-73.12zM754.816 619.616c-16.384 16.32-23.808 39.328-20.064 61.888l45.312 270.432-232.32-124.992c-11.136-6.016-23.424-8.992-35.776-8.992-12.288 0-24.608 3.008-35.744 8.992l-232.32 124.992 45.312-270.432c3.776-22.56-3.648-45.568-20.032-61.888l-195.264-194.944 266.432-39.68c24.352-3.616 45.312-18.848 55.776-40.576l115.872-240.384 115.84 240.416c10.496 21.728 31.424 36.928 55.744 40.576l266.496 39.68-195.264 194.912z"></path>
  </symbol>
  <symbol id="icon-tv" viewBox="0 0 1024 1024">
    <title>Fernseher</title>
    <path class="path1" d="M709.44 275.968c-86.624-17.824-174.56-26.848-261.28-26.848s-174.624 9.024-261.28 26.848c-11.2 2.304-20.352 10.432-23.968 21.344-46.144 140.192-46.144 282.336 0 422.528 3.584 10.88 12.736 19.008 23.968 21.312 86.656 17.792 174.56 26.848 261.28 26.848 86.688 0 174.656-9.056 261.28-26.88 11.264-2.304 20.384-10.432 24-21.312 46.112-140.192 46.112-282.336 0-422.528-3.616-10.88-12.768-19.008-24-21.312zM703.008 709.824c-169.888 34.88-339.808 34.88-509.664 0-44.192-134.176-44.192-268.32 0-402.528 169.888-34.912 339.808-34.912 509.664 0 44.192 134.176 44.192 268.32 0 402.528zM987.328 202.24c-6.176-26.048-28-45.504-54.56-48.704-139.52-16.96-281.024-25.536-420.608-25.536-139.552 0-281.056 8.576-420.576 25.504-26.56 3.232-48.352 22.656-54.528 48.736-48.928 205.536-48.928 413.952 0 619.52 6.176 26.048 27.968 45.504 54.528 48.672 67.232 8.192 134.912 14.176 202.592 18.432-3.648 2.336-6.016 4.704-6.016 7.136 0 17.696 100.288 32 224 32s224-14.304 224-32c0-2.432-2.368-4.8-6.016-7.136 67.68-4.256 135.36-10.24 202.56-18.432 26.56-3.2 48.384-22.624 54.56-48.672 48.992-205.568 48.992-413.984 0.064-619.52zM925.056 806.944c-275.264 33.376-550.528 33.376-825.76 0-46.816-196.64-46.816-393.28 0-589.888 275.264-33.408 550.528-33.408 825.76 0 46.816 196.608 46.816 393.248 0 589.888zM848.192 384c26.496 0 48-21.504 48-48s-21.504-48-48-48-48 21.504-48 48 21.504 48 48 48zM848.192 320c8.8 0 16 7.2 16 16s-7.2 16-16 16-16-7.2-16-16 7.168-16 16-16zM880.192 704c8.8 0 16 7.136 16 16 0 8.8-7.2 16-16 16h-96c-8.864 0-16-7.2-16-16 0-8.864 7.136-16 16-16h96zM912.192 608c8.8 0 16 7.136 16 16 0 8.8-7.2 16-16 16h-96c-8.864 0-16-7.2-16-16 0-8.864 7.136-16 16-16h96zM912.192 512c8.8 0 16 7.168 16 16s-7.2 16-16 16h-96c-8.864 0-16-7.168-16-16s7.136-16 16-16h96zM432.16 377.728c8.832-0.352 16 6.528 16 15.36s-7.2 16.256-16 16.576l-119.968 8.224c-8.736 0.896-16.864 8.768-18.048 17.472l-5.344 60.64c-0.352 8.8-7.84 16-16.576 16-8.768 0-15.584-7.2-15.136-16l9.76-89.152c1.472-8.704 9.824-16.64 18.56-17.632l146.752-11.488z"></path>
  </symbol>
  <symbol id="icon-eye" viewBox="0 0 1024 1024">
    <title>Auge</title>
    <path class="path1" d="M1022.88 504.832c-0.32-1.344-0.128-2.784-0.64-4.096-0.192-0.544-0.672-0.832-0.864-1.344-0.32-0.768-0.256-1.632-0.672-2.368-92.8-177.632-294.816-304.896-507.936-304.896-213.152 0-415.136 127.072-508 304.672-0.416 0.736-0.352 1.6-0.672 2.368-0.224 0.512-0.672 0.8-0.864 1.344-0.512 1.312-0.32 2.752-0.64 4.096-0.576 2.4-1.12 4.704-1.12 7.168s0.576 4.736 1.12 7.168c0.32 1.344 0.128 2.784 0.64 4.096 0.192 0.544 0.672 0.832 0.864 1.344 0.32 0.768 0.256 1.632 0.672 2.368 92.832 177.632 294.848 304.896 508 304.896 213.12 0 415.136-127.072 507.936-304.672 0.448-0.736 0.384-1.6 0.672-2.368 0.192-0.512 0.672-0.8 0.864-1.344 0.512-1.312 0.32-2.752 0.64-4.096 0.544-2.432 1.12-4.736 1.12-7.168s-0.576-4.768-1.12-7.168zM512.736 767.616c-179.68 0-355.584-102.112-443.232-255.84 88.128-153.92 263.776-255.68 443.232-255.68 179.616 0 355.552 102.144 443.2 255.84-88.128 153.952-263.744 255.68-443.2 255.68zM512.736 383.968c8.832 0 15.936 7.136 15.936 16 0 8.8-7.136 15.968-15.936 15.968v0.032c-52.928 0-95.968 43.040-95.968 95.904 0 8.832-7.168 16-15.968 16-8.832 0-16-7.168-16-16 0-70.56 57.184-127.744 127.744-127.872 0.064 0 0.128-0.032 0.192-0.032zM512 288c-123.744 0-224 100.288-224 224s100.288 224 224 224c123.68 0 224-100.32 224-224 0-123.744-100.32-224-224-224zM512 704c-105.888 0-192-86.112-192-192s86.112-192 192-192c105.888 0 192 86.112 192 192s-86.112 192-192 192z"></path>
  </symbol>
  <symbol id="icon-note" viewBox="0 0 1024 1024">
    <title>Notiz</title>
    <path class="path1" d="M1005.248 242.72l-192-192c-12-12-28.32-18.72-45.248-18.72h-672c-52.928 0-96 43.040-96 96v768c0 52.928 43.072 96 96 96h832c52.928 0 96-43.072 96-96v-608c0-16.992-6.752-33.28-18.752-45.28zM960 896c0 17.696-14.304 32-32 32h-832c-17.696 0-32-14.304-32-32v-768c0-17.696 14.304-32 32-32h640v128h-0.064c0 53.024 43.008 96 96 96h128.064v576zM863.936 288h-32c-35.264 0-64-28.704-64-64h0.064v-128l192 192h-96.064zM496 256c-8.832 0-16-7.136-16-16s7.168-16 16-16h160c8.8 0 16 7.168 16 16s-7.2 16-16 16h-160zM496 352c-8.832 0-16-7.168-16-16s7.168-16 16-16h160c8.8 0 16 7.168 16 16s-7.2 16-16 16h-160zM480 432c0-8.864 7.168-16 16-16h384c8.8 0 16 7.168 16 16s-7.2 16-16 16h-384c-8.832 0-16-7.168-16-16zM880 608c8.8 0 16 7.136 16 16 0 8.8-7.2 16-16 16h-736c-8.832 0-16-7.2-16-16 0-8.864 7.168-16 16-16h736zM880 704c8.8 0 16 7.136 16 16 0 8.8-7.2 16-16 16h-736c-8.832 0-16-7.2-16-16 0-8.864 7.168-16 16-16h736zM880 800c8.8 0 16 7.136 16 16 0 8.8-7.2 16-16 16h-736c-8.832 0-16-7.2-16-16 0-8.864 7.168-16 16-16h736zM880 512c8.8 0 16 7.168 16 16s-7.2 16-16 16h-736c-8.832 0-16-7.136-16-16s7.168-16 16-16h736zM160 448h224c17.696 0 32-14.304 32-32v-192c0-17.696-14.304-32-32-32h-224c-17.696 0-32 14.304-32 32v192c0 17.664 14.304 32 32 32zM192 256h160v128h-160v-128z"></path>
  </symbol>
  <symbol id="icon-video" viewBox="0 0 1024 1024">
    <title>Video</title>
    <path class="path1" d="M960 192h-28.384c-16.8 0-32.928 6.624-44.928 18.432l-86.688 85.504v-39.936c0-53.024-43.008-96-96-96h-608c-52.928 0-96 43.040-96 96v512c0 52.992 42.976 96 96 96h608c52.992 0 96-43.008 96-96v-39.072l86.688 85.504c12 11.808 28.128 18.432 44.928 18.432h28.384c35.328 0 64-28.64 64-64v-512.864c0-35.36-28.672-64-64-64zM96 800c-17.664 0-32-14.368-32-32v-512c0-17.696 14.304-32 32-32h608c17.632 0 32 14.336 32 32v512c0 17.632-14.368 32-32 32h-608zM960 768.864h-32l-128-128v-0.864l-32-32v-192l160-160h32v512.864z"></path>
  </symbol>
  <symbol id="icon-photo" viewBox="0 0 1024 1024">
    <title>Foto</title>
    <path class="path1" d="M864 0h-704c-70.688 0-128 57.312-128 128v768c0 70.688 57.312 128 128 128h704c70.688 0 128-57.312 128-128v-768c0-70.688-57.312-128-128-128zM928 896c0 35.264-28.736 64-64 64h-704c-35.296 0-64-28.736-64-64v-768c0-35.296 28.704-64 64-64h704c35.264 0 64 28.704 64 64v768zM832 128h-640c-17.696 0-32 14.304-32 32v576c0 17.696 14.304 32 32 32h640c17.696 0 32-14.304 32-32v-576c0-17.696-14.304-32-32-32zM832 160v443.808l-104-112.96c-6.112-6.912-14.816-10.848-24-10.848s-17.952 3.936-24 10.848l-83.328 94.4-252.672-286.4c-6.080-6.912-14.816-10.848-24-10.848s-17.92 3.936-24 10.848l-104 119.936v-258.784h640zM192 467.2l128-147.2 276.672 313.632 88.384 102.368h-493.056v-268.8zM727.68 736l-109.696-126.56 86.016-97.44 128 140.128v83.872h-104.32zM640 416c52.992 0 96-42.976 96-96s-43.008-96-96-96c-53.056 0-96 42.976-96 96s42.944 96 96 96zM640 256c35.264 0 64 28.704 64 64s-28.736 64-64 64c-35.328 0-64-28.704-64-64s28.672-64 64-64z"></path>
  </symbol>
  <symbol id="icon-settings" viewBox="0 0 1024 1024">
    <title>Einstellungen</title>
    <path class="path1" d="M972.512 405.76l-98.048-19.648c-4.928-14.176-10.752-27.936-17.184-41.248l55.552-83.328c16.928-25.376 13.568-59.2-8-80.736l-61.568-61.568c-12.384-12.384-28.736-18.752-45.312-18.752-12.256 0-24.64 3.52-35.424 10.752l-83.328 55.52c-13.376-6.464-27.136-12.224-41.312-17.152l-19.648-98.080c-5.952-29.952-32.256-51.456-62.752-51.456h-87.040c-30.496 0-56.768 21.536-62.752 51.456l-19.648 98.080c-14.176 4.928-27.936 10.72-41.248 17.152l-83.296-55.52c-10.848-7.232-23.2-10.752-35.488-10.752-16.544 0-32.896 6.368-45.28 18.752l-61.536 61.568c-21.568 21.568-24.928 55.36-8 80.736l55.52 83.328c-6.464 13.344-12.224 27.104-17.152 41.28l-98.112 19.616c-29.92 5.984-51.456 32.256-51.456 62.752v87.040c0 30.496 21.536 56.8 51.456 62.752l98.080 19.68c4.928 14.176 10.72 27.936 17.152 41.248l-55.488 83.328c-16.928 25.376-13.568 59.2 8 80.736l61.568 61.568c12.384 12.384 28.736 18.752 45.28 18.752 12.288 0 24.672-3.552 35.456-10.752l83.328-55.552c13.344 6.496 27.104 12.256 41.28 17.184l19.616 98.048c5.984 29.952 32.256 51.488 62.752 51.488h87.040c30.496 0 56.8-21.568 62.752-51.488l19.68-98.048c14.176-4.928 27.936-10.752 41.248-17.184l83.328 55.552c10.816 7.2 23.2 10.752 35.424 10.752 16.576 0 32.928-6.368 45.312-18.752l61.568-61.568c21.568-21.568 24.928-55.36 8-80.736l-55.552-83.328c6.496-13.376 12.256-27.136 17.184-41.312l98.048-19.616c29.92-5.92 51.488-32.256 51.488-62.752v-87.040c0-30.496-21.568-56.768-51.488-62.752zM861.888 575.2c-22.24 4.448-40.448 20.32-47.872 41.76-4.128 11.808-8.928 23.264-14.304 34.368-9.952 20.448-8.256 44.576 4.32 63.424l55.552 83.328-61.568 61.568-83.328-55.552c-10.688-7.136-23.072-10.752-35.488-10.752-9.504 0-19.072 2.112-27.872 6.368-11.136 5.376-22.56 10.24-34.432 14.368-21.376 7.424-37.248 25.632-41.696 47.872l-19.68 98.112h-87.040l-19.616-98.112c-4.448-22.24-20.32-40.448-41.728-47.872-11.808-4.128-23.296-8.928-34.4-14.304-8.832-4.32-18.368-6.432-27.904-6.432-12.448 0-24.8 3.616-35.488 10.752l-83.328 55.552-61.568-61.568 55.52-83.328c12.576-18.88 14.208-43.008 4.384-63.36-5.376-11.136-10.208-22.56-14.336-34.432-7.424-21.376-25.664-37.248-47.872-41.696l-98.080-19.68-0.064-87.072 98.112-19.616c22.208-4.448 40.448-20.32 47.872-41.728 4.128-11.808 8.896-23.296 14.304-34.4 9.92-20.416 8.256-44.544-4.352-63.392l-55.488-83.328 61.536-61.568 83.328 55.52c10.688 7.136 23.072 10.752 35.488 10.752 9.504 0 19.040-2.112 27.872-6.368 11.104-5.376 22.56-10.208 34.4-14.336 21.408-7.424 37.28-25.664 41.728-47.872l19.648-98.080 87.040-0.032 19.616 98.112c4.448 22.208 20.32 40.448 41.76 47.872 11.808 4.128 23.264 8.896 34.368 14.304 8.864 4.288 18.368 6.4 27.936 6.4 12.448 0 24.8-3.616 35.488-10.752l83.328-55.52 61.568 61.568-55.552 83.328c-12.576 18.88-14.176 42.976-4.384 63.36 5.376 11.104 10.24 22.56 14.368 34.4 7.424 21.408 25.632 37.28 47.872 41.728l98.048 19.648 0.096 87.040-98.112 19.648zM512 288.032c-123.68 0-224 100.32-224 224 0 123.712 100.32 224 224 224s224-100.32 224-224c0-123.68-100.32-224-224-224zM512 708.064c-108.224 0-196-87.808-196-196 0-108.224 87.776-196 196-196 108.192 0 196 87.776 196 196 0 108.192-87.808 196-196 196zM512 384.032c-70.72 0-128 57.28-128 128 0 70.688 57.28 128 128 128 70.688 0 128-57.312 128-128s-57.312-128-128-128zM512 608.064c-52.992 0-96-43.008-96-96s43.008-96 96-96 96 43.008 96 96c0 52.992-43.008 96-96 96z"></path>
  </symbol>
  <symbol id="icon-world" viewBox="0 0 1024 1024">
    <title>Globus</title>
    <path class="path1" d="M496 0c-273.952 0-496 222.048-496 496s222.048 496 496 496 496-222.048 496-496-222.048-496-496-496zM927.2 480h-191.872c-1.76-70.88-14.368-138.592-36.736-200.576 43.2-18.016 83.136-41.984 119.552-70.304 64.736 72.672 105.216 167.040 109.056 270.88zM478.304 927.104c-53.184-44.288-97.792-101.792-130.432-168.576 41.888-13.088 86.272-20.256 132.128-21.728v190.368c-0.576 0-1.12-0.032-1.696-0.064zM513.632 64.896c60.352 50.24 109.6 117.536 142.912 196.032-45.632 15.584-94.112 24.64-144.576 26.24v-222.368c0.608 0.032 1.12 0.064 1.664 0.096zM566.944 70.336c88.32 14.688 167.552 55.936 229.248 115.648-33.504 25.696-70.112 47.456-109.696 63.936-29.12-69.024-69.984-130.048-119.552-179.584zM480 64.8v222.368c-50.464-1.632-98.976-10.656-144.576-26.24 33.312-78.496 82.56-145.792 142.912-196.032 0.576-0.032 1.088-0.064 1.664-0.096zM305.472 249.952c-39.52-16.48-76.16-38.24-109.664-63.936 61.664-59.712 140.928-100.96 229.248-115.648-49.6 49.504-90.432 110.528-119.584 179.584zM323.36 290.432c49.344 17.12 101.92 27.104 156.64 28.768v160.8h-191.328c1.728-67.008 13.6-131.040 34.688-189.568zM480 512v192.8c-50.464 1.536-99.264 9.792-145.248 24.608-27.712-65.984-44.064-139.488-46.080-217.408h191.328zM425.056 921.664c-79.136-13.152-151.008-47.616-209.44-97.664 31.52-21.856 65.6-40.352 102.016-54.4 27.904 57.856 64.416 109.216 107.424 152.064zM512 927.2v-190.368c45.824 1.472 90.24 8.64 132.128 21.728-32.672 66.784-77.248 124.288-130.432 168.576-0.544 0-1.12 0.032-1.696 0.064zM674.368 769.6c36.384 14.048 70.432 32.576 102.016 54.4-58.432 50.016-130.304 84.512-209.44 97.664 43.008-42.848 79.488-94.208 107.424-152.064zM657.248 729.408c-46.016-14.816-94.816-23.072-145.248-24.608v-192.8h191.328c-2.016 77.92-18.4 151.424-46.080 217.408zM512 480v-160.8c54.688-1.664 107.264-11.616 156.64-28.736 21.056 58.528 32.928 122.56 34.688 189.568h-191.328zM173.888 209.12c36.416 28.32 76.352 52.288 119.52 70.304-22.368 61.984-34.976 129.696-36.736 200.576h-191.872c3.84-103.84 44.32-198.208 109.088-270.88zM64.8 512h191.872c1.984 81.76 19.072 158.976 48.096 228.384-40.544 15.808-78.336 36.864-113.216 61.792-75.136-74.784-122.56-177.024-126.752-290.176zM800.448 802.144c-34.88-24.896-72.672-45.984-113.248-61.792 29.056-69.408 46.112-146.624 48.128-228.384h191.872c-4.192 113.184-51.648 215.424-126.752 290.176z"></path>
  </symbol>
  <symbol id="icon-pen" viewBox="0 0 1024 1024">
    <title>Stift</title>
    <path class="path1" d="M940.64 82.56c-52.64-52.576-121.952-82.56-190.272-82.56-57.632 0-110.688 21.376-149.44 60.064l-155.744 156.928c-0.48 0.448-1.024 0.736-1.504 1.216-0.256 0.256-0.416 0.608-0.672 0.832l0.064 0.064-330.528 333.088c-15.232 15.136-26.272 33.984-32.416 54.56l-75.168 272.256c-0.064 0.736-4.96 22.112-4.96 32.992 0 61.824 50.208 112 112.128 112 12.32 0 36.16-5.888 37.024-6.016l271.296-71.328c20.608-6.112 39.328-17.248 54.56-32.512l488.416-492.256c88.832-88.896 78.816-237.888-22.784-339.328zM512.448 761.44c-2.624-28.864-10.784-57.184-23.008-84.064l302.56-302.528c18.496 58.432 8.992 119.552-31.552 160.128-0.256 0.256-0.576 0.416-0.8 0.672l0.448 0.416-247.296 249.28c0-7.968 0.384-15.776-0.352-23.904zM473.376 648.192c-11.936-19.616-25.504-38.56-42.304-55.328-19.552-19.552-41.984-34.88-65.408-47.744l305.024-305.024c23.936 10.624 46.88 25.76 67.136 46.016 17.312 17.248 30.688 36.576 40.992 56.672l-305.44 305.408zM335.552 529.984c-29.632-11.936-60.672-18.752-91.776-19.168l246.496-248.384c37.728-36.8 92.672-47.392 146.784-33.984l-301.504 301.536zM133.344 955.936c-3.488 0.8-14.336 3.552-21.696 4.064-26.304-0.32-47.648-21.696-47.648-48 0.384-5.376 2.528-14.624 3.264-17.984l33.696-122.048c36.576-0.992 75.936 13.248 106.88 44.256 31.424 31.36 46.208 71.488 44.608 108.512l-119.104 31.2zM283.968 916.384c-0.768-42.944-18.24-87.616-53.504-122.816-33.344-33.376-76.992-52.64-120.512-54.368l31.872-115.424c2.304-7.68 6.88-15.264 12.512-21.888 64.192-45.952 162.912-32.384 231.488 36.256 72.544 72.512 83.744 178.752 27.872 242.176-3.712 1.952-7.456 3.808-11.488 4.992l-118.24 31.072zM918.112 376.704l-53.888 54.304c0-7.232 0.864-14.176 0.192-21.568-5.632-61.92-34.496-121.792-81.376-168.608-52.128-52.16-121.248-82.080-189.696-82.272l52.992-53.44c26.528-26.464 63.552-41.12 104.032-41.12 51.488 0 104.384 23.296 145.056 63.84 38.176 38.112 60.928 85.472 64.192 133.376 3.008 44.704-11.744 85.696-41.504 115.488z"></path>
  </symbol>
</svg>